<?xml version="1.0" encoding="UTF-8"?>
<svg width="227px" height="83px" viewBox="0 0 227 83" version="1.1" xmlns="http://www.w3.org/2000/svg" xmlns:xlink="http://www.w3.org/1999/xlink">
    <!-- Generator: Sketch 58 (84663) - https://sketch.com -->
    <title>Slice</title>
    <desc>Created with Sketch.</desc>
    <g id="Page-1" stroke="none" stroke-width="1" fill="none" fill-rule="evenodd">
        <g id="Artboard" transform="translate(-59.000000, -79.000000)" fill-rule="nonzero">
            <path d="M92.6870014,82.0749985 C91.4550012,81.3399984 90.314001,81.0319984 88.9420008,81.0319984 C86.8560005,81.0319984 85.0360002,82.0959985 85.0360002,84.1399989 C85.0360002,85.9109992 86.2960004,86.6739993 88.0250007,86.9469993 L88.6480008,87.0449994 C90.013001,87.2619994 90.7270011,87.5139994 90.7270011,88.1929995 C90.7270011,88.9489997 89.887001,89.3759997 88.8020008,89.3759997 C87.5420006,89.3759997 86.3870004,88.8859997 85.6800003,88.3189996 L84.6650001,89.8939998 C85.7150003,90.741 87.3110005,91.175 88.7950008,91.175 C90.9020011,91.175 92.8060014,90.1459999 92.8060014,87.9829995 C92.8060014,86.2749992 91.4340012,85.5259991 89.6840009,85.2389991 L89.1310008,85.147999 C87.9550006,84.951999 87.1080005,84.734999 87.1080005,84.0139989 C87.1080005,83.2719987 87.8850006,82.8379987 88.9840008,82.8379987 C90.055001,82.8379987 90.9930011,83.1949987 91.7630013,83.6709988 L92.6870014,82.0749985 Z M108.590001,81.1999984 L106.63,81.1999984 L106.63,86.9889993 C106.63,88.5989996 105.72,89.3059997 104.369,89.3059997 C103.018,89.3059997 102.107999,88.5989996 102.107999,86.9889993 L102.107999,81.1999984 L100.147999,81.1999984 L100.147999,87.0869994 C100.147999,89.7959998 101.876999,91.175 104.369,91.175 C106.861,91.175 108.590001,89.7959998 108.590001,87.0869994 L108.590001,81.1999984 Z M120.439999,87.4159994 C122.763999,87.4159994 124.009999,86.1979992 124.009999,84.3149989 C124.009999,82.4179986 122.763999,81.1999984 120.425999,81.1999984 L116.428998,81.1999984 L116.428998,91 L118.381999,91 L118.381999,87.4159994 L120.439999,87.4159994 Z M120.390999,82.9989987 C121.454999,82.9989987 122.007999,83.4399988 122.007999,84.3149989 C122.007999,85.196999 121.454999,85.6309991 120.390999,85.6309991 L118.381999,85.6309991 L118.381999,82.9989987 L120.390999,82.9989987 Z M135.411998,87.4159994 C137.735998,87.4159994 138.981998,86.1979992 138.981998,84.3149989 C138.981998,82.4179986 137.735998,81.1999984 135.397998,81.1999984 L131.400997,81.1999984 L131.400997,91 L133.353998,91 L133.353998,87.4159994 L135.411998,87.4159994 Z M135.362998,82.9989987 C136.426998,82.9989987 136.979998,83.4399988 136.979998,84.3149989 C136.979998,85.196999 136.426998,85.6309991 135.362998,85.6309991 L133.353998,85.6309991 L133.353998,82.9989987 L135.362998,82.9989987 Z M151.062997,81.0179984 C148.045996,81.0179984 145.917996,83.1739987 145.917996,86.0999992 C145.917996,89.0259997 148.045996,91.182 151.062997,91.182 C154.079997,91.182 156.214998,89.0259997 156.214998,86.0999992 C156.214998,83.1739987 154.079997,81.0179984 151.062997,81.0179984 Z M151.062997,82.8939987 C152.868997,82.8939987 154.170997,84.1959989 154.170997,86.0999992 C154.170997,88.0039995 152.868997,89.3059997 151.062997,89.3059997 C149.263997,89.3059997 147.954996,88.0039995 147.954996,86.0999992 C147.954996,84.1959989 149.263997,82.8939987 151.062997,82.8939987 Z M163.696995,81.1999984 L163.696995,91 L165.649996,91 L165.649996,87.1009994 L166.223996,87.1009994 L169.079996,91 L171.445996,91 L168.428996,87.0729994 C170.311996,86.8909993 171.431996,85.7919991 171.431996,84.1819989 C171.431996,82.3059986 170.178996,81.1999984 167.840996,81.1999984 L163.696995,81.1999984 Z M167.805996,82.9989987 C168.841996,82.9989987 169.422996,83.3699987 169.422996,84.1819989 C169.422996,85.007999 168.869996,85.3999991 167.805996,85.3999991 L165.649996,85.3999991 L165.649996,82.9989987 L167.805996,82.9989987 Z M186.060995,81.1999984 L178.031994,81.1999984 L178.031994,83.0269987 L181.069995,83.0269987 L181.069995,91 L183.022995,91 L183.022995,83.0269987 L186.060995,83.0269987 L186.060995,81.1999984 Z M200.444994,89.2079997 L195.075994,89.2079997 L195.075994,86.9539993 L200.143994,86.9539993 L200.143994,85.161999 L195.075994,85.161999 L195.075994,82.9919987 L200.388994,82.9919987 L200.388994,81.1999984 L193.122993,81.1999984 L193.122993,91 L200.444994,91 L200.444994,89.2079997 Z M208.171992,81.1999984 L208.171992,91 L212.210993,91 C215.276993,91 217.299994,89.0539997 217.299994,86.0999992 C217.299994,83.1459987 215.276993,81.1999984 212.210993,81.1999984 L208.171992,81.1999984 Z M212.189993,83.0269987 C214.254993,83.0269987 215.255993,84.3009989 215.255993,86.0999992 C215.255993,87.8779995 214.254993,89.1729997 212.189993,89.1729997 L210.124993,89.1729997 L210.124993,83.0269987 L212.189993,83.0269987 Z M233.97199,81.1999984 L233.97199,91 L238.213991,91 C240.565991,91 241.902991,90.0759998 241.902991,88.1929995 C241.902991,87.1359994 241.167991,86.2959992 240.271991,85.9949992 C241.090991,85.6939991 241.692991,84.902999 241.692991,83.9159988 C241.692991,82.0469985 240.257991,81.1999984 237.975991,81.1999984 L233.97199,81.1999984 Z M238.115991,86.9259993 C239.193991,86.9259993 239.872991,87.1779994 239.872991,88.0949995 C239.872991,89.0329997 239.193991,89.2849997 238.115991,89.2849997 L235.924991,89.2779997 L235.924991,86.9259993 L238.115991,86.9259993 Z M237.919991,82.9219987 C238.885991,82.9219987 239.655991,83.1319987 239.655991,84.0559989 C239.655991,84.9578937 238.977476,85.1875558 238.078741,85.2092325 L235.924991,85.2109991 L235.924991,82.9219987 L237.919991,82.9219987 Z M257.427991,81.1999984 L253.70399,87.1359994 L253.70399,91 L251.75099,91 L251.75099,87.1289994 L247.977989,81.1999984 L250.273989,81.1999984 L252.73799,85.3579991 L255.20199,81.1999984 L257.427991,81.1999984 Z" id="SUPPORTEDBY" fill="#24244C"></path>
            <g id="Group" transform="translate(61.400000, 106.900000)">
                <polygon id="Path" fill="#24244C" points="0 1 12.5 1 12.5 53.5 3.33066907e-16 53.5"></polygon>
                <polygon id="Path" fill="#24244C" points="102.9 53.5 102.9 1 90.4 1 90.4 33.1 66.4 1 60.9 1 54.4 1 54.4 33.1 30.5 1 18.5 1 18.5 53.5 31 53.5 31 21.5 54.9 53.5 57 53.5 64.1 53.5 67 53.5 67 21.5 90.9 53.5"></polygon>
                <path d="M134.9,12 C143.4,12 149.5,18.2 149.5,27.2 C149.5,36.2 143.4,42.4 134.9,42.4 C126.3,42.4 120.3,36.2 120.3,27.2 C120.3,18.2 126.4,12 134.9,12 M134.9,7.10542736e-15 C118.7,7.10542736e-15 107.2,11.6 107.2,27.2 C107.2,42.8 118.7,54.4 134.9,54.4 C151.1,54.4 162.6,42.8 162.6,27.2 C162.6,11.6 151.1,7.10542736e-15 134.9,7.10542736e-15" id="Shape" fill="#24244C"></path>
                <path d="M193.8,12 C202.3,12 208.4,18.2 208.4,27.2 C208.4,28.9 208.2,30.5 207.8,32 L206.1,29.7 L192.5,29.7 L200.8,40.8 C198.8,41.8 196.4,42.4 193.9,42.4 C185.4,42.4 179.3,36.2 179.3,27.2 C179.2,18.3 185.3,12 193.8,12 M193.8,-3.55271368e-15 C177.6,-3.55271368e-15 166.1,11.6 166.1,27.2 C166.1,42.8 177.6,54.4 193.8,54.4 C199.3,54.4 204,52.9 208,50.3 L210.3,53.4 L225,53.4 L216.7,42.2 C219.6,38 221.3,33.1 221.3,27.2 C221.5,11.6 210,-3.55271368e-15 193.8,-3.55271368e-15" id="Shape" fill="#FF4D67"></path>
            </g>
        </g>
    </g>
</svg>